<svg width="127" height="51" xmlns="http://www.w3.org/2000/svg" xmlns:xlink="http://www.w3.org/1999/xlink" overflow="hidden"><defs><filter id="fx0" x="-10%" y="-10%" width="120%" height="120%" filterUnits="userSpaceOnUse" primitiveUnits="userSpaceOnUse"><feComponentTransfer color-interpolation-filters="sRGB"><feFuncR type="discrete" tableValues="0 0"/><feFuncG type="discrete" tableValues="0 0"/><feFuncB type="discrete" tableValues="0 0"/><feFuncA type="linear" slope="0.4" intercept="0"/></feComponentTransfer><feGaussianBlur stdDeviation="1.77778 1.77778"/></filter><clipPath id="clip1"><rect x="222" y="427" width="127" height="51"/></clipPath><clipPath id="clip2"><path d="M226.5 431.5 226.5 450.5 283.5 469.5 340.5 450.5 340.5 431.5 283.5 450.5ZM222 427 349 427 349 478 222 478Z" fill-rule="evenodd" clip-rule="evenodd"/></clipPath><clipPath id="clip3"><rect x="-2" y="-2" width="133" height="56"/></clipPath><clipPath id="clip4"><rect x="0" y="0" width="129" height="54"/></clipPath></defs><g clip-path="url(#clip1)" transform="translate(-222 -427)"><g clip-path="url(#clip2)"><g clip-path="url(#clip3)" filter="url(#fx0)" transform="translate(222 426)"><g clip-path="url(#clip4)"><path d="M121.328 8.32849 121.328 27.3285 64.3285 46.3285 7.32849 27.3285 7.32849 8.32849 64.3285 27.3285Z" stroke="#FFFFFF" stroke-miterlimit="8" fill="#FFFFFF" fill-rule="evenodd"/></g></g></g><path d="M340.5 431.5 340.5 450.5 283.5 469.5 226.5 450.5 226.5 431.5 283.5 450.5Z" stroke="#FFFFFF" stroke-width="1.33333" stroke-miterlimit="8" fill="#FFFFFF" fill-rule="evenodd"/></g></svg>