<svg width="29" height="28" xmlns="http://www.w3.org/2000/svg" xmlns:xlink="http://www.w3.org/1999/xlink" overflow="hidden"><defs><clipPath id="clip0"><rect x="716" y="567" width="29" height="28"/></clipPath></defs><g clip-path="url(#clip0)" transform="translate(-716 -567)"><path d="M727.152 573.985C726.955 573.987 726.767 574.066 726.628 574.206L725.842 574.995 725.841 574.994C725.622 575.214 725.407 575.429 725.267 575.562L725.237 575.603 725.13 575.71 725.145 575.73 724.862 576.122C724.765 576.331 724.707 576.558 724.695 576.793 724.664 577.558 724.801 578.32 725.095 579.027 725.376 579.66 725.722 580.263 726.126 580.826 727.531 582.938 729.307 584.776 731.369 586.251 731.713 586.506 732.076 586.736 732.453 586.939 733.305 587.388 734.239 587.66 735.199 587.74 735.527 587.764 735.852 587.712 736.151 587.595L736.716 587.209 736.762 587.234 736.945 587.053 736.947 587.052 736.999 587 738.2 585.808C738.489 585.516 738.489 585.045 738.2 584.752L738.2 584.74 735.833 582.36C735.688 582.215 735.497 582.143 735.307 582.143 735.116 582.143 734.926 582.215 734.78 582.36L734.005 583.174 734.001 583.171 733.486 583.701C733.343 583.847 733.109 583.849 732.964 583.705 732.962 583.704 732.961 583.703 732.96 583.701L728.715 579.448C728.569 579.301 728.569 579.064 728.715 578.917L729.244 578.402 729.239 578.396 730.053 577.626C730.188 577.486 730.263 577.3 730.263 577.106 730.264 576.908 730.186 576.719 730.046 576.58L727.679 574.206C727.539 574.065 727.35 573.986 727.152 573.985ZM731.522 568C738.413 568 744 573.601 744 580.509 744 587.418 738.413 593.018 731.522 593.018 730.66 593.018 729.819 592.931 729.007 592.764L727.002 592.14 717 594 719.685 584.283 719.297 583.03C719.131 582.216 719.044 581.373 719.044 580.509 719.044 573.601 724.63 568 731.522 568Z" fill="#04BF68" fill-rule="evenodd"/></g></svg>